# Blender v3.0.1 OBJ File: 'gun.blend'
# www.blender.org
mtllib muzzle_flash.mtl
o Cone_Cone.001
v -0.000000 5.063355 -9.157488
v 0.476952 4.787987 -9.157488
v 0.476952 4.237249 -9.157488
v -0.000000 3.961881 -9.157488
v -0.476952 4.237250 -9.157488
v -0.476952 4.787987 -9.157488
v 0.000000 4.512618 -7.157488
v -0.000000 4.512618 -17.889256
vt 0.250000 0.490000
vt 0.250000 0.250000
vt 0.457846 0.370000
vt 0.457846 0.130000
vt 0.250000 0.010000
vt 0.042154 0.130000
vt 0.000000 0.000000
vt 0.000000 0.000000
vt 0.042154 0.370000
vt 0.000000 0.000000
vn 0.4864 0.8424 0.2320
vn 0.9727 -0.0000 0.2320
vn 0.4864 -0.8424 0.2320
vn -0.4864 -0.8424 0.2320
vn 0.4993 0.8647 -0.0545
vn -0.9727 0.0000 0.2320
vn -0.4864 0.8424 0.2320
vn 0.9985 -0.0000 -0.0545
vn -0.4993 0.8647 -0.0545
vn -0.9985 0.0000 -0.0545
vn 0.4993 -0.8647 -0.0545
vn -0.4993 -0.8647 -0.0545
g Cone_Cone.001_Material.001
usemtl Material.001
s off
f 1/1/1 7/2/1 2/3/1
f 2/3/2 7/2/2 3/4/2
f 3/4/3 7/2/3 4/5/3
f 4/5/4 7/2/4 5/6/4
f 2/7/5 8/8/5 1/1/5
f 5/6/6 7/2/6 6/9/6
f 6/9/7 7/2/7 1/1/7
f 2/7/8 3/10/8 8/8/8
f 1/1/9 8/8/9 6/9/9
f 6/9/10 8/8/10 5/6/10
f 4/5/11 8/8/11 3/10/11
f 8/8/12 4/5/12 5/6/12
o Cone.001_Cone.002
v -0.000000 5.879943 -6.894921
v 0.238476 5.879943 -7.032605
v 0.238476 5.879943 -7.307974
v -0.000000 5.879943 -7.445658
v -0.238476 5.879943 -7.307973
v -0.238476 5.879943 -7.032605
v 0.000000 4.879943 -7.170290
v -0.000000 8.645826 -7.170288
vt 0.250000 0.490000
vt 0.250000 0.250000
vt 0.457846 0.370000
vt 0.457846 0.130000
vt 0.250000 0.010000
vt 0.042154 0.130000
vt 0.000000 0.000000
vt 0.000000 0.000000
vt 0.042154 0.370000
vt 0.000000 0.000000
vn 0.4864 -0.2320 0.8424
vn 0.9727 -0.2320 0.0000
vn 0.4864 -0.2320 -0.8424
vn -0.4864 -0.2320 -0.8424
vn 0.4982 0.0859 0.8628
vn -0.9727 -0.2320 0.0000
vn -0.4864 -0.2320 0.8424
vn 0.9963 0.0859 0.0000
vn -0.4982 0.0859 0.8628
vn -0.9963 0.0859 0.0000
vn 0.4982 0.0859 -0.8628
vn -0.4982 0.0859 -0.8628
g Cone.001_Cone.002_Material.001
usemtl Material.001
s off
f 9/11/13 15/12/13 10/13/13
f 10/13/14 15/12/14 11/14/14
f 11/14/15 15/12/15 12/15/15
f 12/15/16 15/12/16 13/16/16
f 10/17/17 16/18/17 9/11/17
f 13/16/18 15/12/18 14/19/18
f 14/19/19 15/12/19 9/11/19
f 10/17/20 11/20/20 16/18/20
f 9/11/21 16/18/21 14/19/21
f 14/19/22 16/18/22 13/16/22
f 12/15/23 16/18/23 11/20/23
f 16/18/24 12/15/24 13/16/24
o Cone.002_Cone.003
v -0.000000 3.134988 -6.894921
v -0.238476 3.134988 -7.032605
v -0.238476 3.134988 -7.307973
v -0.000000 3.134988 -7.445658
v 0.238476 3.134988 -7.307973
v 0.238476 3.134988 -7.032605
v 0.000000 4.134988 -7.170290
v -0.000002 0.369105 -7.170287
vt 0.250000 0.490000
vt 0.250000 0.250000
vt 0.457846 0.370000
vt 0.457846 0.130000
vt 0.250000 0.010000
vt 0.042154 0.130000
vt 0.000000 0.000000
vt 0.000000 0.000000
vt 0.042154 0.370000
vt 0.000000 0.000000
vn -0.4864 0.2320 0.8424
vn -0.9727 0.2320 0.0000
vn -0.4864 0.2320 -0.8424
vn 0.4864 0.2320 -0.8424
vn -0.4982 -0.0859 0.8628
vn 0.9727 0.2320 0.0000
vn 0.4864 0.2320 0.8424
vn -0.9963 -0.0859 -0.0000
vn 0.4982 -0.0859 0.8628
vn 0.9963 -0.0859 0.0000
vn -0.4982 -0.0859 -0.8628
vn 0.4982 -0.0859 -0.8628
g Cone.002_Cone.003_Material.001
usemtl Material.001
s off
f 17/21/25 23/22/25 18/23/25
f 18/23/26 23/22/26 19/24/26
f 19/24/27 23/22/27 20/25/27
f 20/25/28 23/22/28 21/26/28
f 18/27/29 24/28/29 17/21/29
f 21/26/30 23/22/30 22/29/30
f 22/29/31 23/22/31 17/21/31
f 18/27/32 19/30/32 24/28/32
f 17/21/33 24/28/33 22/29/33
f 22/29/34 24/28/34 21/26/34
f 20/25/35 24/28/35 19/30/35
f 24/28/36 20/25/36 21/26/36
o Cone.004_Cone.005
v 1.372478 4.507465 -6.894921
v 1.372478 4.268989 -7.032605
v 1.372478 4.268989 -7.307973
v 1.372478 4.507465 -7.445658
v 1.372478 4.745942 -7.307973
v 1.372478 4.745942 -7.032605
v 0.372478 4.507465 -7.170290
v 4.138361 4.507466 -7.170287
vt 0.250000 0.490000
vt 0.250000 0.250000
vt 0.457846 0.370000
vt 0.457846 0.130000
vt 0.250000 0.010000
vt 0.042154 0.130000
vt 0.000000 0.000000
vt 0.000000 0.000000
vt 0.042154 0.370000
vt 0.000000 0.000000
vn -0.2320 -0.4864 0.8424
vn -0.2320 -0.9727 0.0000
vn -0.2320 -0.4864 -0.8424
vn -0.2320 0.4864 -0.8424
vn 0.0859 -0.4982 0.8628
vn -0.2320 0.9727 0.0000
vn -0.2320 0.4864 0.8424
vn 0.0859 -0.9963 0.0000
vn 0.0859 0.4982 0.8628
vn 0.0859 0.9963 -0.0000
vn 0.0859 -0.4982 -0.8628
vn 0.0859 0.4982 -0.8628
g Cone.004_Cone.005_Material.001
usemtl Material.001
s off
f 25/31/37 31/32/37 26/33/37
f 26/33/38 31/32/38 27/34/38
f 27/34/39 31/32/39 28/35/39
f 28/35/40 31/32/40 29/36/40
f 26/37/41 32/38/41 25/31/41
f 29/36/42 31/32/42 30/39/42
f 30/39/43 31/32/43 25/31/43
f 26/37/44 27/40/44 32/38/44
f 25/31/45 32/38/45 30/39/45
f 30/39/46 32/38/46 29/36/46
f 28/35/47 32/38/47 27/40/47
f 32/38/48 28/35/48 29/36/48
o Cone.003_Cone.004
v -1.372477 4.507466 -6.894921
v -1.372477 4.745942 -7.032605
v -1.372477 4.745942 -7.307973
v -1.372477 4.507465 -7.445658
v -1.372477 4.268990 -7.307973
v -1.372477 4.268990 -7.032605
v -0.372477 4.507465 -7.170290
v -4.138361 4.507468 -7.170286
vt 0.250000 0.490000
vt 0.250000 0.250000
vt 0.457846 0.370000
vt 0.457846 0.130000
vt 0.250000 0.010000
vt 0.042154 0.130000
vt 0.000000 0.000000
vt 0.000000 0.000000
vt 0.042154 0.370000
vt 0.000000 0.000000
vn 0.2320 0.4864 0.8424
vn 0.2320 0.9727 0.0000
vn 0.2320 0.4864 -0.8424
vn 0.2320 -0.4864 -0.8424
vn -0.0859 0.4982 0.8628
vn 0.2320 -0.9727 0.0000
vn 0.2320 -0.4864 0.8424
vn -0.0859 0.9963 0.0000
vn -0.0859 -0.4982 0.8628
vn -0.0859 -0.9963 0.0000
vn -0.0859 0.4981 -0.8628
vn -0.0859 -0.4982 -0.8628
g Cone.003_Cone.004_Material.001
usemtl Material.001
s off
f 33/41/49 39/42/49 34/43/49
f 34/43/50 39/42/50 35/44/50
f 35/44/51 39/42/51 36/45/51
f 36/45/52 39/42/52 37/46/52
f 34/47/53 40/48/53 33/41/53
f 37/46/54 39/42/54 38/49/54
f 38/49/55 39/42/55 33/41/55
f 34/47/56 35/50/56 40/48/56
f 33/41/57 40/48/57 38/49/57
f 38/49/58 40/48/58 37/46/58
f 36/45/59 40/48/59 35/50/59
f 40/48/60 36/45/60 37/46/60
